%TF.GenerationSoftware,KiCad,Pcbnew,8.0.8*%
%TF.CreationDate,2025-10-15T12:51:47+03:00*%
%TF.ProjectId,isuzu investment 2,6973757a-7520-4696-9e76-6573746d656e,rev?*%
%TF.SameCoordinates,Original*%
%TF.FileFunction,Copper,L1,Top*%
%TF.FilePolarity,Positive*%
%FSLAX46Y46*%
G04 Gerber Fmt 4.6, Leading zero omitted, Abs format (unit mm)*
G04 Created by KiCad (PCBNEW 8.0.8) date 2025-10-15 12:51:47*
%MOMM*%
%LPD*%
G01*
G04 APERTURE LIST*
%TA.AperFunction,ComponentPad*%
%ADD10C,1.400000*%
%TD*%
%TA.AperFunction,ComponentPad*%
%ADD11O,1.400000X1.400000*%
%TD*%
%TA.AperFunction,ComponentPad*%
%ADD12C,1.500000*%
%TD*%
%TA.AperFunction,SMDPad,CuDef*%
%ADD13R,1.100000X1.300000*%
%TD*%
%TA.AperFunction,SMDPad,CuDef*%
%ADD14R,1.000000X0.650000*%
%TD*%
%TA.AperFunction,SMDPad,CuDef*%
%ADD15R,1.000000X1.500000*%
%TD*%
%TA.AperFunction,SMDPad,CuDef*%
%ADD16R,3.400000X4.300000*%
%TD*%
%TA.AperFunction,ComponentPad*%
%ADD17R,3.000000X3.000000*%
%TD*%
%TA.AperFunction,ComponentPad*%
%ADD18C,3.000000*%
%TD*%
%TA.AperFunction,ComponentPad*%
%ADD19R,1.600000X1.600000*%
%TD*%
%TA.AperFunction,ComponentPad*%
%ADD20O,1.600000X1.600000*%
%TD*%
%TA.AperFunction,Conductor*%
%ADD21C,0.200000*%
%TD*%
G04 APERTURE END LIST*
D10*
%TO.P,R6,1*%
%TO.N,Net-(A1-A1)*%
X146600000Y-155500000D03*
D11*
%TO.P,R6,2*%
%TO.N,Net-(M1--)*%
X148500000Y-155500000D03*
%TD*%
D12*
%TO.P,R2,1*%
%TO.N,Net-(R1-Pad1)*%
X262100000Y-95500000D03*
%TO.P,R2,2*%
%TO.N,Net-(A1-A1)*%
X265500000Y-95500000D03*
%TD*%
D10*
%TO.P,R8,1*%
%TO.N,Net-(A1-A3)*%
X122600000Y-180000000D03*
D11*
%TO.P,R8,2*%
%TO.N,Net-(M1--)*%
X124500000Y-180000000D03*
%TD*%
D13*
%TO.P,M2,1,PWM*%
%TO.N,unconnected-(M2-PWM-Pad1)*%
X220000000Y-82965000D03*
%TO.P,M2,2,+*%
%TO.N,Net-(M2-+)*%
X223300000Y-82965000D03*
D14*
%TO.P,M2,SH*%
%TO.N,N/C*%
X220850000Y-88840000D03*
D15*
X221650000Y-83465000D03*
D16*
X221650000Y-86365000D03*
D14*
X222450000Y-88840000D03*
%TD*%
D12*
%TO.P,R4,1*%
%TO.N,Net-(R1-Pad1)*%
X262300000Y-149000000D03*
%TO.P,R4,2*%
%TO.N,Net-(A1-A3)*%
X265700000Y-149000000D03*
%TD*%
%TO.P,R3,1*%
%TO.N,Net-(R1-Pad1)*%
X261800000Y-109650000D03*
%TO.P,R3,2*%
%TO.N,Net-(A1-A2)*%
X265200000Y-109650000D03*
%TD*%
D10*
%TO.P,R5,1*%
%TO.N,Net-(A1-A0)*%
X122600000Y-156000000D03*
D11*
%TO.P,R5,2*%
%TO.N,Net-(M1--)*%
X124500000Y-156000000D03*
%TD*%
D17*
%TO.P,U2,1,I1*%
%TO.N,Net-(A1-D13)*%
X46420000Y-20620000D03*
D18*
%TO.P,U2,2,I2*%
%TO.N,Net-(A1-D12)*%
X50230000Y-20620000D03*
%TO.P,U2,3,I3*%
%TO.N,Net-(A1-D11)*%
X57850000Y-20620000D03*
%TO.P,U2,4,I4*%
%TO.N,Net-(A1-D10)*%
X61660000Y-20620000D03*
%TO.P,U2,5,I5*%
%TO.N,unconnected-(U2-I5-Pad5)*%
X69280000Y-20620000D03*
%TO.P,U2,6,I6*%
%TO.N,unconnected-(U2-I6-Pad6)*%
X73090000Y-20620000D03*
%TO.P,U2,7,I7*%
%TO.N,unconnected-(U2-I7-Pad7)*%
X80710000Y-20620000D03*
%TO.P,U2,8,I8*%
%TO.N,unconnected-(U2-I8-Pad8)*%
X84520000Y-20620000D03*
%TO.P,U2,9,GND*%
%TO.N,unconnected-(U2-GND-Pad9)*%
X92140000Y-20620000D03*
%TO.P,U2,10,COM*%
%TO.N,Net-(M2-+)*%
X95950000Y-20620000D03*
%TO.P,U2,11,O8*%
%TO.N,unconnected-(U2-O8-Pad11)*%
X103570000Y-20620000D03*
%TO.P,U2,12,O7*%
%TO.N,unconnected-(U2-O7-Pad12)*%
X107380000Y-20620000D03*
%TO.P,U2,13,O6*%
%TO.N,unconnected-(U2-O6-Pad13)*%
X116500000Y-30140000D03*
%TO.P,U2,14,O5*%
%TO.N,unconnected-(U2-O5-Pad14)*%
X116500000Y-33950000D03*
%TO.P,U2,15,O4*%
%TO.N,unconnected-(U2-O4-Pad15)*%
X116500000Y-49190000D03*
%TO.P,U2,16,O3*%
%TO.N,unconnected-(U2-O3-Pad16)*%
X116500000Y-53000000D03*
%TO.P,U2,17,O2*%
%TO.N,unconnected-(U2-O2-Pad17)*%
X107380000Y-62520000D03*
%TO.P,U2,18,O1*%
%TO.N,unconnected-(U2-O1-Pad18)*%
X103570000Y-62520000D03*
%TO.P,U2,19*%
%TO.N,N/C*%
X92140000Y-62520000D03*
%TO.P,U2,20*%
X88330000Y-62520000D03*
%TO.P,U2,21*%
X73090000Y-62520000D03*
%TO.P,U2,22*%
X69280000Y-62520000D03*
%TO.P,U2,23*%
X54040000Y-62520000D03*
%TO.P,U2,24*%
X50230000Y-62520000D03*
%TO.P,U2,25*%
X37300000Y-53000000D03*
%TO.P,U2,26*%
X37300000Y-49190000D03*
%TO.P,U2,27*%
X37300000Y-33950000D03*
%TO.P,U2,28*%
X37300000Y-30140000D03*
%TD*%
D19*
%TO.P,A1,1,NC*%
%TO.N,unconnected-(A1-NC-Pad1)*%
X50140000Y-135240000D03*
D20*
%TO.P,A1,2,IOREF*%
%TO.N,unconnected-(A1-IOREF-Pad2)*%
X52680000Y-135240000D03*
%TO.P,A1,3,~{RESET}*%
%TO.N,unconnected-(A1-~{RESET}-Pad3)*%
X55220000Y-135240000D03*
%TO.P,A1,4,3V3*%
%TO.N,unconnected-(A1-3V3-Pad4)*%
X57760000Y-135240000D03*
%TO.P,A1,5,+5V*%
%TO.N,+5V*%
X60300000Y-135240000D03*
%TO.P,A1,6,GND*%
%TO.N,unconnected-(A1-GND-Pad6)*%
X62840000Y-135240000D03*
%TO.P,A1,7,GND*%
%TO.N,unconnected-(A1-GND-Pad7)*%
X65380000Y-135240000D03*
%TO.P,A1,8,VIN*%
%TO.N,unconnected-(A1-VIN-Pad8)*%
X67920000Y-135240000D03*
%TO.P,A1,9,A0*%
%TO.N,Net-(A1-A0)*%
X73000000Y-135240000D03*
%TO.P,A1,10,A1*%
%TO.N,Net-(A1-A1)*%
X75540000Y-135240000D03*
%TO.P,A1,11,A2*%
%TO.N,Net-(A1-A2)*%
X78080000Y-135240000D03*
%TO.P,A1,12,A3*%
%TO.N,Net-(A1-A3)*%
X80620000Y-135240000D03*
%TO.P,A1,13,SDA/A4*%
%TO.N,unconnected-(A1-SDA{slash}A4-Pad13)*%
X83160000Y-135240000D03*
%TO.P,A1,14,SCL/A5*%
%TO.N,unconnected-(A1-SCL{slash}A5-Pad14)*%
X85700000Y-135240000D03*
%TO.P,A1,15,D0/RX*%
%TO.N,unconnected-(A1-D0{slash}RX-Pad15)*%
X85700000Y-183500000D03*
%TO.P,A1,16,D1/TX*%
%TO.N,unconnected-(A1-D1{slash}TX-Pad16)*%
X83160000Y-183500000D03*
%TO.P,A1,17,D2*%
%TO.N,unconnected-(A1-D2-Pad17)*%
X80620000Y-183500000D03*
%TO.P,A1,18,D3*%
%TO.N,unconnected-(A1-D3-Pad18)*%
X78080000Y-183500000D03*
%TO.P,A1,19,D4*%
%TO.N,Net-(A1-D4)*%
X75540000Y-183500000D03*
%TO.P,A1,20,D5*%
%TO.N,Net-(A1-D5)*%
X73000000Y-183500000D03*
%TO.P,A1,21,D6*%
%TO.N,Net-(A1-D6)*%
X70460000Y-183500000D03*
%TO.P,A1,22,D7*%
%TO.N,Net-(A1-D7)*%
X67920000Y-183500000D03*
%TO.P,A1,23,D8*%
%TO.N,unconnected-(A1-D8-Pad23)*%
X63860000Y-183500000D03*
%TO.P,A1,24,D9*%
%TO.N,unconnected-(A1-D9-Pad24)*%
X61320000Y-183500000D03*
%TO.P,A1,25,D10*%
%TO.N,Net-(A1-D10)*%
X58780000Y-183500000D03*
%TO.P,A1,26,D11*%
%TO.N,Net-(A1-D11)*%
X56240000Y-183500000D03*
%TO.P,A1,27,D12*%
%TO.N,Net-(A1-D12)*%
X53700000Y-183500000D03*
%TO.P,A1,28,D13*%
%TO.N,Net-(A1-D13)*%
X51160000Y-183500000D03*
%TO.P,A1,29,GND*%
%TO.N,unconnected-(A1-GND-Pad29)*%
X48620000Y-183500000D03*
%TO.P,A1,30,AREF*%
%TO.N,unconnected-(A1-AREF-Pad30)*%
X46080000Y-183500000D03*
%TD*%
D12*
%TO.P,R1,1*%
%TO.N,Net-(R1-Pad1)*%
X261600000Y-76000000D03*
%TO.P,R1,2*%
%TO.N,Net-(A1-A0)*%
X265000000Y-76000000D03*
%TD*%
D17*
%TO.P,U1,1,I1*%
%TO.N,Net-(A1-D7)*%
X191350000Y-21100000D03*
D18*
%TO.P,U1,2,I2*%
%TO.N,Net-(A1-D6)*%
X195160000Y-21100000D03*
%TO.P,U1,3,I3*%
%TO.N,Net-(A1-D5)*%
X202780000Y-21100000D03*
%TO.P,U1,4,I4*%
%TO.N,Net-(A1-D4)*%
X206590000Y-21100000D03*
%TO.P,U1,5,I5*%
%TO.N,unconnected-(U1-I5-Pad5)*%
X214210000Y-21100000D03*
%TO.P,U1,6,I6*%
%TO.N,unconnected-(U1-I6-Pad6)*%
X218020000Y-21100000D03*
%TO.P,U1,7,I7*%
%TO.N,unconnected-(U1-I7-Pad7)*%
X225640000Y-21100000D03*
%TO.P,U1,8,I8*%
%TO.N,unconnected-(U1-I8-Pad8)*%
X229450000Y-21100000D03*
%TO.P,U1,9,GND*%
%TO.N,unconnected-(U1-GND-Pad9)*%
X237070000Y-21100000D03*
%TO.P,U1,10,COM*%
%TO.N,Net-(M1-+)*%
X240880000Y-21100000D03*
%TO.P,U1,11,O8*%
%TO.N,unconnected-(U1-O8-Pad11)*%
X248500000Y-21100000D03*
%TO.P,U1,12,O7*%
%TO.N,unconnected-(U1-O7-Pad12)*%
X252310000Y-21100000D03*
%TO.P,U1,13,O6*%
%TO.N,unconnected-(U1-O6-Pad13)*%
X261430000Y-30620000D03*
%TO.P,U1,14,O5*%
%TO.N,unconnected-(U1-O5-Pad14)*%
X261430000Y-34430000D03*
%TO.P,U1,15,O4*%
%TO.N,unconnected-(U1-O4-Pad15)*%
X261430000Y-49670000D03*
%TO.P,U1,16,O3*%
%TO.N,unconnected-(U1-O3-Pad16)*%
X261430000Y-53480000D03*
%TO.P,U1,17,O2*%
%TO.N,unconnected-(U1-O2-Pad17)*%
X252310000Y-63000000D03*
%TO.P,U1,18,O1*%
%TO.N,unconnected-(U1-O1-Pad18)*%
X248500000Y-63000000D03*
%TO.P,U1,19*%
%TO.N,N/C*%
X237070000Y-63000000D03*
%TO.P,U1,20*%
X233260000Y-63000000D03*
%TO.P,U1,21*%
X218020000Y-63000000D03*
%TO.P,U1,22*%
X214210000Y-63000000D03*
%TO.P,U1,23*%
X198970000Y-63000000D03*
%TO.P,U1,24*%
X195160000Y-63000000D03*
%TO.P,U1,25*%
X182230000Y-53480000D03*
%TO.P,U1,26*%
X182230000Y-49670000D03*
%TO.P,U1,27*%
X182230000Y-34430000D03*
%TO.P,U1,28*%
X182230000Y-30620000D03*
%TD*%
D13*
%TO.P,M1,1,PWM*%
%TO.N,unconnected-(M1-PWM-Pad1)*%
X237000000Y-140055000D03*
%TO.P,M1,2,+*%
%TO.N,Net-(M1-+)*%
X240300000Y-140055000D03*
D14*
%TO.P,M1,SH*%
%TO.N,N/C*%
X237850000Y-145930000D03*
D15*
X238650000Y-140555000D03*
D16*
X238650000Y-143455000D03*
D14*
X239450000Y-145930000D03*
%TD*%
D10*
%TO.P,R7,1*%
%TO.N,Net-(A1-A2)*%
X147095000Y-180000000D03*
D11*
%TO.P,R7,2*%
%TO.N,Net-(M1--)*%
X148995000Y-180000000D03*
%TD*%
D21*
%TO.N,Net-(A1-D4)*%
X236558729Y-18500000D02*
X253269741Y-18500000D01*
X229316128Y-25742601D02*
X236558729Y-18500000D01*
X231584925Y-184600000D02*
X76640000Y-184600000D01*
X274335870Y-39566129D02*
X274335870Y-141849055D01*
X76640000Y-184600000D02*
X75540000Y-183500000D01*
X201947399Y-25742601D02*
X229316128Y-25742601D01*
X206590000Y-21100000D02*
X201947399Y-25742601D01*
X274335870Y-141849055D02*
X231584925Y-184600000D01*
X253269741Y-18500000D02*
X274335870Y-39566129D01*
%TO.N,Net-(A1-A0)*%
X122600000Y-156000000D02*
X94744365Y-156000000D01*
X94744365Y-156000000D02*
X74440000Y-135695635D01*
X122600000Y-156000000D02*
X93760000Y-156000000D01*
X264250000Y-95734925D02*
X264250000Y-76750000D01*
X74440000Y-135695635D02*
X74440000Y-134784365D01*
X93760000Y-156000000D02*
X73000000Y-135240000D01*
X273935870Y-39731815D02*
X273935870Y-88549055D01*
X265934925Y-96550000D02*
X265065075Y-96550000D01*
X183081764Y-26142601D02*
X229481814Y-26142601D01*
X265065075Y-96550000D02*
X264250000Y-95734925D01*
X229481814Y-26142601D02*
X236724415Y-18900000D01*
X273935870Y-88549055D02*
X265934925Y-96550000D01*
X236724415Y-18900000D02*
X253104055Y-18900000D01*
X74440000Y-134784365D02*
X183081764Y-26142601D01*
X264250000Y-76750000D02*
X265000000Y-76000000D01*
X253104055Y-18900000D02*
X273935870Y-39731815D01*
%TO.N,Net-(A1-D6)*%
X70460000Y-136224365D02*
X70460000Y-183500000D01*
X193360000Y-22900000D02*
X183784365Y-22900000D01*
X195160000Y-21100000D02*
X193360000Y-22900000D01*
X183784365Y-22900000D02*
X70460000Y-136224365D01*
%TO.N,Net-(A1-D7)*%
X67920000Y-183500000D02*
X67920000Y-136795635D01*
X67920000Y-136795635D02*
X183615635Y-21100000D01*
X183615635Y-21100000D02*
X191350000Y-21100000D01*
%TO.N,Net-(A1-D10)*%
X61660000Y-20620000D02*
X61660000Y-180620000D01*
X61660000Y-180620000D02*
X58780000Y-183500000D01*
%TO.N,Net-(A1-D11)*%
X56240000Y-183500000D02*
X56320000Y-183420000D01*
X56320000Y-183420000D02*
X56320000Y-22150000D01*
X56320000Y-22150000D02*
X57850000Y-20620000D01*
%TO.N,Net-(A1-A2)*%
X241150000Y-141005000D02*
X239450000Y-141005000D01*
X262734925Y-150050000D02*
X250195000Y-150050000D01*
X238445000Y-138500000D02*
X188595000Y-138500000D01*
X265200000Y-109650000D02*
X265200000Y-147584925D01*
X265200000Y-147584925D02*
X262734925Y-150050000D01*
X250195000Y-150050000D02*
X241150000Y-141005000D01*
X239450000Y-139505000D02*
X238445000Y-138500000D01*
X188595000Y-138500000D02*
X147095000Y-180000000D01*
X239450000Y-141005000D02*
X239450000Y-139505000D01*
%TO.N,Net-(A1-D12)*%
X53780000Y-183420000D02*
X53780000Y-65220000D01*
X52240000Y-22630000D02*
X50230000Y-20620000D01*
X53780000Y-65220000D02*
X52240000Y-63680000D01*
X53700000Y-183500000D02*
X53780000Y-183420000D01*
X52240000Y-63680000D02*
X52240000Y-22630000D01*
%TO.N,Net-(A1-D13)*%
X46420000Y-20620000D02*
X46420000Y-178760000D01*
X46420000Y-178760000D02*
X51160000Y-183500000D01*
%TO.N,Net-(A1-A1)*%
X241625585Y-19300000D02*
X242680000Y-20354415D01*
X266250000Y-94750000D02*
X265500000Y-95500000D01*
X239080000Y-20354415D02*
X240134415Y-19300000D01*
X242680000Y-20354415D02*
X242680000Y-24880000D01*
X75540000Y-135240000D02*
X86300000Y-146000000D01*
X266250000Y-48450000D02*
X266250000Y-94750000D01*
X86300000Y-146000000D02*
X180529314Y-146000000D01*
X146600000Y-155500000D02*
X129200000Y-138100000D01*
X129200000Y-138100000D02*
X78400000Y-138100000D01*
X240134415Y-19300000D02*
X241625585Y-19300000D01*
X78400000Y-138100000D02*
X75540000Y-135240000D01*
X242680000Y-24880000D02*
X266250000Y-48450000D01*
X180529314Y-146000000D02*
X239080000Y-87449314D01*
X239080000Y-87449314D02*
X239080000Y-20354415D01*
%TO.N,Net-(A1-D5)*%
X200680000Y-19000000D02*
X202780000Y-21100000D01*
X73000000Y-183500000D02*
X71900000Y-184600000D01*
X66820000Y-134784365D02*
X67464365Y-134140000D01*
X67464365Y-134140000D02*
X69664365Y-134140000D01*
X67464365Y-184600000D02*
X66820000Y-183955635D01*
X66820000Y-183955635D02*
X66820000Y-134784365D01*
X69664365Y-134140000D02*
X184804365Y-19000000D01*
X184804365Y-19000000D02*
X200680000Y-19000000D01*
X71900000Y-184600000D02*
X67464365Y-184600000D01*
%TO.N,Net-(M1-+)*%
X241000000Y-21500000D02*
X240300000Y-22200000D01*
X240880000Y-21380000D02*
X241000000Y-21500000D01*
X240300000Y-22200000D02*
X240300000Y-140055000D01*
X240880000Y-21100000D02*
X240880000Y-21380000D01*
%TO.N,Net-(R1-Pad1)*%
X262300000Y-149000000D02*
X262300000Y-110150000D01*
X262100000Y-109350000D02*
X261800000Y-109650000D01*
X262100000Y-95500000D02*
X262100000Y-109350000D01*
X262100000Y-76500000D02*
X261600000Y-76000000D01*
X262100000Y-95500000D02*
X262100000Y-76500000D01*
X262300000Y-110150000D02*
X261800000Y-109650000D01*
%TO.N,Net-(M1--)*%
X124500000Y-180000000D02*
X148500000Y-156000000D01*
X147995000Y-181000000D02*
X148995000Y-180000000D01*
X125500000Y-181000000D02*
X147995000Y-181000000D01*
X124500000Y-180000000D02*
X125500000Y-181000000D01*
X124500000Y-180000000D02*
X124500000Y-156000000D01*
X148500000Y-156000000D02*
X148500000Y-155500000D01*
%TD*%
M02*
